<?xml version="1.0" encoding="utf-8"?>
<!-- Generator: Adobe Illustrator 16.0.0, SVG Export Plug-In . SVG Version: 6.00 Build 0)  -->
<!DOCTYPE svg PUBLIC "-//W3C//DTD SVG 1.1//EN" "http://www.w3.org/Graphics/SVG/1.1/DTD/svg11.dtd">
<svg version="1.1" id="Layer_1" xmlns="http://www.w3.org/2000/svg" xmlns:xlink="http://www.w3.org/1999/xlink" x="0px" y="0px"
	 width="274.408px" height="212.775px" viewBox="0 0 274.408 212.775" enable-background="new 0 0 274.408 212.775"
	 xml:space="preserve">
<g>
	<path fill="#934893" d="M192.128,130.94h-41.215v81.835h-36.976V0h74.829c24.549,0,43.496,5.494,56.854,16.517
		c13.338,11.029,20.02,26.973,20.02,47.816c0,14.269-3.441,26.176-10.3,35.781c-6.871,9.605-16.456,16.99-28.728,22.146
		l47.796,88.625v1.891H234.8L192.128,130.94z M150.913,101.105h37.995c12.474,0,22.214-3.125,29.227-9.429
		c7.013-6.264,10.53-14.87,10.53-25.764c0-11.407-3.247-20.229-9.721-26.473c-6.473-6.23-16.158-9.437-29.004-9.632h-39.027V101.105
		z"/>
	<g>
		<path fill="#EF4D4D" d="M85.21,2.113c-13.655,2.767-26.365,8.14-37.59,15.599c-11.853,7.891-22.045,18.069-29.908,29.922
			C10.253,58.845,4.867,71.575,2.113,85.23C0.716,92.061,0,99.148,0,106.377c0,7.256,0.716,14.316,2.113,21.161
			c2.754,13.662,8.14,26.405,15.599,37.583c7.863,11.866,18.056,22.059,29.908,29.915c11.245,7.466,23.935,12.852,37.59,15.619
			c6.852,1.363,13.925,2.12,21.168,2.12v-2.538v-5.076v-1.377c-53.79,0-97.414-43.59-97.414-97.407
			c0-53.796,43.624-97.407,97.414-97.407v-1.35V2.538V0C99.135,0,92.048,0.749,85.21,2.113z"/>
		<path fill="#EACA44" d="M8.964,106.377c0,53.816,43.624,97.407,97.414,97.407v-12.879c-46.682,0-84.542-37.839-84.542-84.528
			c0-46.689,37.86-84.528,84.542-84.528V8.971C52.588,8.971,8.964,52.581,8.964,106.377z"/>
		<path fill="#84BF56" d="M34.708,106.377c0-39.574,32.062-71.677,71.67-71.677V21.849c-46.682,0-84.542,37.839-84.542,84.528
			c0,46.688,37.86,84.528,84.542,84.528v-12.852C66.77,178.054,34.708,145.979,34.708,106.377z"/>
		<path fill="#469AC4" d="M34.708,106.377c0,39.601,32.062,71.676,71.67,71.676v-12.892c-32.453,0-58.785-26.311-58.785-58.784
			c0-32.453,26.332-58.771,58.785-58.771V34.701C66.77,34.701,34.708,66.803,34.708,106.377z"/>
		<path fill="#934893" d="M65.912,106.377c0-21.876,18.022-39.669,40.466-40.371v-18.4c-32.453,0-58.785,26.318-58.785,58.771
			c0,32.473,26.332,58.784,58.785,58.784v-18.386C83.935,146.046,65.912,128.254,65.912,106.377z"/>
	</g>
</g>
<line fill="none" x1="-65.757" y1="353.084" x2="-59.55" y2="353.084"/>
</svg>
