<?xml version="1.0" encoding="utf-8"?>
<!-- Generator: Adobe Illustrator 16.0.0, SVG Export Plug-In . SVG Version: 6.00 Build 0)  -->
<!DOCTYPE svg PUBLIC "-//W3C//DTD SVG 1.1//EN" "http://www.w3.org/Graphics/SVG/1.1/DTD/svg11.dtd">
<svg version="1.1" id="Layer_1" xmlns="http://www.w3.org/2000/svg" xmlns:xlink="http://www.w3.org/1999/xlink" x="0px" y="0px"
	 width="816.351px" height="133.761px" viewBox="0 0 816.351 133.761" enable-background="new 0 0 816.351 133.761"
	 xml:space="preserve">
<g>
	<g>
		<path fill="#934893" d="M117.695,81.92h-25.25v50.129H69.798V1.702h45.834c15.04,0,26.646,3.363,34.829,10.12
			c8.173,6.756,12.267,16.526,12.267,29.289c0,8.738-2.107,16.036-6.306,21.921c-4.209,5.885-10.09,10.411-17.602,13.563
			l29.278,54.303v1.151h-24.264L117.695,81.92z M92.445,63.643h23.278c7.643,0,13.608-1.912,17.902-5.776
			c4.294-3.833,6.451-9.119,6.451-15.786c0-6.986-1.992-12.392-5.951-16.216c-3.969-3.823-9.905-5.775-17.767-5.896H92.445V63.643z"
			/>
		<g>
			<path fill="#EF4D4D" d="M52.196,2.993c-8.368,1.702-16.146,4.985-23.022,9.56c-7.262,4.834-13.508,11.07-18.323,18.338
				c-4.569,6.866-7.873,14.664-9.554,23.032C0.436,58.097,0,62.441,0,66.865c0,4.444,0.436,8.778,1.296,12.973
				c1.682,8.368,4.985,16.166,9.554,23.013c4.815,7.277,11.061,13.514,18.323,18.338c6.887,4.574,14.654,7.867,23.022,9.569
				c4.194,0.831,8.534,1.291,12.973,1.291v-1.562v-3.113v-0.83c-32.952,0-59.678-26.706-59.678-59.679
				c0-32.942,26.726-59.668,59.678-59.668V6.376V3.264V1.702C60.729,1.702,56.385,2.162,52.196,2.993z"/>
			<path fill="#EACA44" d="M5.491,66.865c0,32.973,26.726,59.679,59.678,59.679v-7.898c-28.603,0-51.795-23.172-51.795-51.78
				c0-28.598,23.193-51.771,51.795-51.771V7.197C32.216,7.197,5.491,33.923,5.491,66.865z"/>
			<path fill="#84BF56" d="M21.261,66.865c0-24.233,19.639-43.893,43.908-43.893v-7.878c-28.603,0-51.795,23.173-51.795,51.771
				c0,28.608,23.193,51.78,51.795,51.78v-7.867C40.9,110.778,21.261,91.129,21.261,66.865z"/>
			<path fill="#469AC4" d="M21.261,66.865c0,24.264,19.639,43.913,43.908,43.913v-7.897c-19.884,0-36.015-16.116-36.015-36.016
				c0-19.879,16.13-35.995,36.015-35.995v-7.897C40.9,22.973,21.261,42.632,21.261,66.865z"/>
			<path fill="#934893" d="M40.375,66.865c0-13.393,11.041-24.293,24.794-24.724V30.87c-19.884,0-36.015,16.116-36.015,35.995
				c0,19.899,16.13,36.016,36.015,36.016V91.609C51.416,91.169,40.375,80.269,40.375,66.865z"/>
		</g>
	</g>
	<g>
		<path fill="#934893" d="M221.932,1.722l-49.233,130.327h28.143l10.149-29.148h44.869l10.23,29.148h28.228L245.004,1.722H221.932z
			 M247.952,80.219h-29.068l14.539-41.601L247.952,80.219z"/>
		<rect x="303.521" y="1.722" fill="#934893" width="26.786" height="130.327"/>
		<polygon fill="#934893" points="417.242,84.563 365.242,1.722 339.511,1.722 339.511,132.049 366.388,132.049 366.388,49.559 
			418.213,132.049 443.968,132.049 443.968,1.722 417.242,1.722 		"/>
		<path fill="#934893" d="M530.203,63.893c3.873-2.402,6.996-5.355,9.329-8.829c3.373-4.985,5.095-10.68,5.095-16.907
			c0-12.012-4.074-21.221-12.102-27.396c-7.808-5.996-19.209-9.039-33.894-9.039h-45.464v130.327h48.217
			c14.614,0,26.065-3.383,34.014-10.06c8.117-6.776,12.231-16.546,12.231-29.049c0-7.627-2.032-14.283-6.036-19.789
			C538.67,69.147,534.857,66.045,530.203,63.893z M513.056,50.399c-3.313,2.673-8.108,4.024-14.254,4.024h-18.759v-30.04h18.588
			c6.837,0,11.842,1.211,14.885,3.594c2.903,2.262,4.304,5.986,4.304,11.391C517.82,44.224,516.259,47.827,513.056,50.399z
			 M515.939,105.123c-3.344,2.923-8.148,4.414-14.305,4.414h-21.591V75.554h23.353c11.902,0.24,17.438,5.766,17.438,17.387
			C520.833,98.226,519.232,102.21,515.939,105.123z"/>
		<path fill="#934893" d="M636.236,7.738C627.998,2.603,618.418,0,607.758,0c-10.661,0-20.25,2.633-28.488,7.828
			c-8.278,5.205-14.765,12.792-19.288,22.552c-4.465,9.64-6.727,20.88-6.727,33.402v7.067c0.05,12.282,2.342,23.313,6.826,32.802
			c4.504,9.59,11.031,17.087,19.359,22.281c8.308,5.195,17.896,7.828,28.487,7.828c10.721,0,20.34-2.633,28.588-7.828
			c8.258-5.205,14.704-12.742,19.148-22.422c4.374-9.568,6.597-20.79,6.597-33.362v-6.977c-0.061-12.512-2.342-23.683-6.776-33.202
			C650.97,20.35,644.503,12.863,636.236,7.738z M607.928,110.759c-8.708,0-15.335-3.334-20.22-10.2
			c-5.025-7.017-7.567-17.247-7.567-30.41v-7.197c0.101-12.863,2.673-22.882,7.628-29.789c4.834-6.707,11.371-9.97,19.989-9.97
			c8.839,0,15.444,3.273,20.229,10c4.904,6.917,7.387,17.157,7.387,30.43v6.526c0,13.503-2.462,23.823-7.316,30.681
			C623.343,107.515,616.757,110.759,607.928,110.759z"/>
		<polygon fill="#934893" points="789.445,1.722 772.029,86.965 750.627,1.722 728.416,1.722 706.765,86.945 689.148,1.722 
			662.261,1.722 692.331,132.049 717.235,132.049 739.597,48.137 761.448,132.049 786.283,132.049 816.351,1.722 		"/>
	</g>
	<line fill="none" x1="443.968" y1="132.049" x2="453.167" y2="132.049"/>
</g>
</svg>
