<?xml version="1.0" encoding="utf-8"?>
<!-- Generator: Adobe Illustrator 16.0.0, SVG Export Plug-In . SVG Version: 6.00 Build 0)  -->
<!DOCTYPE svg PUBLIC "-//W3C//DTD SVG 1.1//EN" "http://www.w3.org/Graphics/SVG/1.1/DTD/svg11.dtd">
<svg version="1.1" id="Layer_1" xmlns="http://www.w3.org/2000/svg" xmlns:xlink="http://www.w3.org/1999/xlink" x="0px" y="0px"
	 width="503.416px" height="353.084px" viewBox="0 0 503.416 353.084" enable-background="new 0 0 503.416 353.084"
	 xml:space="preserve">
<g>
	<g>
		<path fill="#934893" d="M306.632,130.94h-41.215v81.835h-36.976V0h74.829c24.549,0,43.496,5.494,56.854,16.517
			c13.338,11.029,20.02,26.973,20.02,47.816c0,14.269-3.441,26.176-10.3,35.781c-6.871,9.605-16.456,16.99-28.728,22.146
			l47.796,88.625v1.891h-39.608L306.632,130.94z M265.417,101.105h37.995c12.474,0,22.214-3.125,29.227-9.429
			c7.013-6.264,10.53-14.87,10.53-25.764c0-11.407-3.247-20.229-9.721-26.473c-6.473-6.23-16.158-9.437-29.004-9.632h-39.027
			V101.105z"/>
		<g>
			<path fill="#EF4D4D" d="M199.714,2.113c-13.655,2.767-26.365,8.14-37.59,15.599c-11.853,7.891-22.045,18.069-29.908,29.922
				c-7.459,11.211-12.845,23.941-15.599,37.596c-1.397,6.831-2.113,13.918-2.113,21.147c0,7.256,0.716,14.316,2.113,21.161
				c2.754,13.662,8.14,26.405,15.599,37.583c7.863,11.866,18.056,22.059,29.908,29.915c11.245,7.466,23.935,12.852,37.59,15.619
				c6.852,1.363,13.925,2.12,21.168,2.12v-2.538v-5.076v-1.377c-53.79,0-97.414-43.59-97.414-97.407
				c0-53.796,43.624-97.407,97.414-97.407v-1.35V2.538V0C213.639,0,206.552,0.749,199.714,2.113z"/>
			<path fill="#EACA44" d="M123.468,106.377c0,53.816,43.624,97.407,97.414,97.407v-12.879c-46.682,0-84.542-37.839-84.542-84.528
				c0-46.689,37.86-84.528,84.542-84.528V8.971C167.092,8.971,123.468,52.581,123.468,106.377z"/>
			<path fill="#84BF56" d="M149.212,106.377c0-39.574,32.062-71.677,71.67-71.677V21.849c-46.682,0-84.542,37.839-84.542,84.528
				c0,46.688,37.86,84.528,84.542,84.528v-12.852C181.273,178.054,149.212,145.979,149.212,106.377z"/>
			<path fill="#469AC4" d="M149.212,106.377c0,39.601,32.062,71.676,71.67,71.676v-12.892c-32.453,0-58.785-26.311-58.785-58.784
				c0-32.453,26.332-58.771,58.785-58.771V34.701C181.273,34.701,149.212,66.803,149.212,106.377z"/>
			<path fill="#934893" d="M180.416,106.377c0-21.876,18.022-39.669,40.466-40.371v-18.4c-32.453,0-58.785,26.318-58.785,58.771
				c0,32.473,26.332,58.784,58.785,58.784v-18.386C198.438,146.046,180.416,128.254,180.416,106.377z"/>
		</g>
	</g>
	<line fill="none" x1="48.747" y1="353.084" x2="54.954" y2="353.084"/>
	<g>
		<line fill="none" x1="133.498" y1="335.008" x2="139.701" y2="335.008"/>
		<path fill="#934893" d="M32.298,308.98h-17.03v33.803H0v-87.896h30.907c10.139,0,17.968,2.268,23.483,6.824
			c5.515,4.556,8.275,11.144,8.275,19.75c0,5.893-1.424,10.813-4.252,14.781c-2.842,3.97-6.804,7.021-11.873,9.146l19.743,36.618
			v0.775H49.922L32.298,308.98z M15.268,296.655h15.7c5.15,0,9.173-1.289,12.069-3.895c2.896-2.585,4.354-6.149,4.354-10.645
			c0-4.711-1.343-8.356-4.017-10.935c-2.673-2.579-6.675-3.895-11.98-3.976H15.268V296.655z"/>
		<g>
			<path fill="#934893" d="M102.584,254.9l-33.196,87.883h18.974l6.844-19.655h30.26l6.898,19.655h19.034L118.143,254.9H102.584z
				 M120.134,307.833h-19.602l9.801-28.053L120.134,307.833z"/>
			<rect x="157.602" y="254.9" fill="#934893" width="18.063" height="87.883"/>
			<polygon fill="#934893" points="234.293,310.763 199.222,254.9 181.874,254.9 181.874,342.783 199.998,342.783 199.998,287.158 
				234.941,342.783 252.309,342.783 252.309,254.9 234.293,254.9 			"/>
			<path fill="#934893" d="M310.459,296.824c2.612-1.62,4.718-3.611,6.29-5.953c2.282-3.362,3.436-7.202,3.436-11.401
				c0-8.1-2.746-14.31-8.16-18.474c-5.265-4.043-12.953-6.096-22.854-6.096h-30.658v87.883h32.515
				c9.854,0,17.576-2.281,22.936-6.783c5.475-4.569,8.248-11.157,8.248-19.588c0-5.144-1.37-9.632-4.07-13.345
				C316.169,300.368,313.598,298.275,310.459,296.824z M298.903,287.726c-2.241,1.802-5.475,2.713-9.619,2.713h-12.648v-20.256
				h12.534c4.61,0,7.985,0.816,10.044,2.423c1.95,1.525,2.896,4.036,2.896,7.682C302.109,283.561,301.063,285.99,298.903,287.726z
				 M300.84,324.627c-2.247,1.971-5.494,2.977-9.646,2.977h-14.559v-22.916h15.747c8.025,0.162,11.758,3.888,11.758,11.725
				C304.141,319.976,303.061,322.662,300.84,324.627z"/>
			<path fill="#934893" d="M381.966,258.957c-5.562-3.462-12.021-5.217-19.209-5.217c-7.189,0-13.648,1.774-19.211,5.278
				c-5.582,3.51-9.955,8.626-13.007,15.207c-3.01,6.5-4.536,14.08-4.536,22.524v4.766c0.034,8.281,1.587,15.72,4.604,22.119
				c3.045,6.466,7.438,11.521,13.062,15.024c5.596,3.504,12.062,5.278,19.203,5.278c7.229,0,13.716-1.774,19.277-5.278
				c5.569-3.51,9.916-8.592,12.913-15.119c2.949-6.453,4.447-14.02,4.447-22.497v-4.705c-0.04-8.438-1.579-15.97-4.569-22.389
				C391.902,267.462,387.535,262.413,381.966,258.957z M362.871,328.427c-5.872,0-10.334-2.248-13.635-6.878
				c-3.388-4.731-5.103-11.63-5.103-20.506v-4.854c0.074-8.674,1.802-15.43,5.15-20.087c3.253-4.522,7.66-6.724,13.473-6.724
				c5.96,0,10.422,2.208,13.641,6.743c3.308,4.664,4.981,11.569,4.981,20.52v4.401c0,9.105-1.66,16.064-4.934,20.688
				C373.266,326.24,368.824,328.427,362.871,328.427z"/>
			<polygon fill="#934893" points="485.272,254.9 473.534,312.383 459.104,254.9 444.119,254.9 429.519,312.369 417.646,254.9 
				399.509,254.9 419.792,342.783 436.586,342.783 451.658,286.2 466.394,342.783 483.14,342.783 503.416,254.9 			"/>
		</g>
		<line fill="none" x1="252.309" y1="342.783" x2="258.512" y2="342.783"/>
	</g>
</g>
</svg>
